<svg width="363" height="392" viewBox="0 0 363 392" fill="none" xmlns="http://www.w3.org/2000/svg">
<path d="M19 21.1302C19.88 21.1302 20.46 21.1302 21.04 21.1302C30.23 21.1302 39.42 21.1702 48.61 21.0902C50.09 21.0802 50.76 21.5602 51.36 22.8802C60.76 43.4602 70.22 64.0102 79.66 84.5702C93.82 115.41 107.96 146.26 122.12 177.11C127.98 189.87 133.84 202.63 139.71 215.39C139.89 215.78 140.12 216.15 140.41 216.68C140.68 216.29 140.9 216.04 141.03 215.75C149.03 198.51 157.03 181.27 164.98 164.01C165.26 163.4 165.26 162.45 164.98 161.84C151.8 132.84 138.58 103.86 125.37 74.8702C117.42 57.4402 109.48 40.0202 101.53 22.5902C101.33 22.1502 101.17 21.7002 100.93 21.1202C101.48 21.0802 101.86 21.0402 102.23 21.0402C111.72 21.0402 121.21 21.0602 130.69 21.0002C131.99 20.9902 132.55 21.4102 133.09 22.5802C147.51 53.9602 161.98 85.3202 176.43 116.68C178.13 120.36 179.81 124.06 181.66 128.12C182.94 125.38 184.07 122.99 185.18 120.6C195.89 97.5702 206.6 74.5402 217.3 51.5002C221.8 41.8302 226.3 32.1602 230.75 22.4702C231.21 21.4602 231.78 21.1202 232.88 21.1202C269.44 21.1502 306 21.1402 342.56 21.1402C343 21.1402 343.43 21.1402 344.3 21.1402C289.78 138.17 235.39 254.93 180.89 371.92C180.47 371.41 180.31 371.28 180.24 371.11C179.3 368.56 177.81 366.29 176.74 363.8C175.61 361.17 174.27 358.64 173.04 356.06C171.82 353.51 170.64 350.95 169.43 348.39C168.23 345.83 167.09 343.24 165.78 340.74C165.24 339.69 165.66 338.94 166.05 338.1C169.05 331.62 172.06 325.14 175.07 318.67C179.14 309.89 183.22 301.12 187.29 292.34C195.46 274.74 203.62 257.14 211.79 239.55C223.79 213.72 235.79 187.89 247.8 162.07C262.47 130.54 277.14 99.0002 291.81 67.4702C294.49 61.7102 297.17 55.9602 299.85 50.2002C299.99 49.9002 300.09 49.5702 300.28 49.0702C299.61 49.0402 299.1 48.9902 298.58 48.9902C282.83 48.9902 267.09 49.0002 251.34 48.9602C250.34 48.9602 249.87 49.2802 249.45 50.1802C239.76 71.0602 230.03 91.9302 220.3 112.79C211.75 131.14 203.19 149.48 194.64 167.83C183.01 192.79 171.38 217.75 159.74 242.7C153.36 256.37 146.97 270.03 140.57 283.69C140.35 284.17 140.06 284.61 139.63 285.36C99.4 197.19 59.28 109.34 19 21.1302Z" fill="url(#paint0_linear_1_43)"/>
<defs>
<linearGradient id="paint0_linear_1_43" x1="19.0001" y1="196.465" x2="344.3" y2="196.465" gradientUnits="userSpaceOnUse">
<stop stop-color="#3A97D3"/>
<stop offset="1" stop-color="#905AA1"/>
</linearGradient>
</defs>
</svg>
