<svg width="1202" height="392" viewBox="0 0 1202 392" fill="none" xmlns="http://www.w3.org/2000/svg">
<path d="M391.08 267.69L363.25 125.09H387.86L407.4 236.24L427.08 125.09H451.7L423.38 267.69H391.08Z" fill="#3A97D3"/>
<path d="M474.3 267.69V124.98H541.14V146.6H497.78V185.52H529.46V207.14H497.78V246.06H541.14V267.68H474.3V267.69Z" fill="#3A97D3"/>
<path d="M624.24 267.69H560.26V125.09H583.74V246.29H624.24V267.69Z" fill="#3A97D3"/>
<path d="M711.94 125.09V146.71L668.7 246.3H711.93V267.7H643.36V246.17L686.72 146.61L643.36 146.72V125.1H711.94V125.09Z" fill="#3A97D3"/>
<path d="M768.2 123.27C778.55 123.27 787.35 126.61 794.6 133.28C801.85 139.96 805.47 148 805.47 157.41V235.25C805.47 244.74 801.83 252.8 794.54 259.43C787.25 266.07 778.47 269.39 768.2 269.39C757.85 269.39 749.07 266.05 741.86 259.38C734.65 252.7 731.05 244.66 731.05 235.25V157.41C731.05 147.93 734.69 139.87 741.98 133.23C749.28 126.59 758.02 123.27 768.2 123.27ZM781 156.96C781 153.55 779.7 150.64 777.09 148.25C774.48 145.86 771.31 144.67 767.59 144.67C763.87 144.67 760.67 145.86 758.02 148.25C755.37 150.64 754.04 153.54 754.04 156.96V235.03C754.04 238.44 755.36 241.35 758.02 243.74C760.67 246.13 763.86 247.32 767.59 247.32C771.32 247.32 774.48 246.12 777.09 243.74C779.7 241.36 781 238.45 781 235.03V156.96Z" fill="#3A97D3"/>
<path d="M901.39 232.19C901.56 242.13 898.74 250.63 892.94 257.68C889.13 262.46 883.75 265.84 876.79 267.81C873.06 268.87 868.71 269.4 863.75 269.4C854.56 269.4 846.94 267.31 840.89 263.14C835.84 259.72 831.84 255.08 828.9 249.2C825.96 243.32 824.24 236.59 823.74 229L846.1 227.52C847.09 235.83 849.49 241.86 853.31 245.59C856.12 248.41 859.35 249.75 863 249.59C868.13 249.44 872.23 247.12 875.3 242.64C876.87 240.44 877.66 237.29 877.66 233.19C877.66 227.27 874.72 221.38 868.84 215.53C864.2 211.51 857.24 205.47 847.97 197.42C840.18 190.51 834.68 184.32 831.45 178.85C827.97 172.7 826.23 166.02 826.23 158.8C826.23 145.82 830.99 135.98 840.52 129.3C846.4 125.28 853.69 123.26 862.39 123.26C870.75 123.26 877.92 124.97 883.88 128.38C888.52 131.04 892.27 134.75 895.12 139.53C897.98 144.31 899.7 149.81 900.28 156.03L877.79 159.79C877.13 153.95 875.31 149.4 872.32 146.13C870.17 143.78 867.06 142.6 863 142.6C858.69 142.6 855.42 144.35 853.19 147.84C851.37 150.65 850.46 154.14 850.46 158.31C850.46 164.84 853.52 171.47 859.65 178.23C861.97 180.81 865.45 183.85 870.09 187.33C875.56 191.5 879.16 194.42 880.9 196.09C886.7 201.4 891.17 206.64 894.32 211.8C895.81 214.23 897.01 216.47 897.92 218.51C900.14 223.61 901.3 228.16 901.39 232.19Z" fill="#905AA1"/>
<path d="M960.63 123.27C970.98 123.27 979.78 126.61 987.03 133.28C994.28 139.96 997.9 148 997.9 157.41V235.25C997.9 244.74 994.26 252.8 986.97 259.43C979.68 266.07 970.9 269.39 960.63 269.39C950.28 269.39 941.5 266.05 934.29 259.38C927.08 252.7 923.48 244.66 923.48 235.25V157.41C923.48 147.93 927.12 139.87 934.41 133.23C941.71 126.59 950.45 123.27 960.63 123.27ZM973.43 156.96C973.43 153.55 972.13 150.64 969.52 148.25C966.91 145.86 963.74 144.67 960.02 144.67C956.3 144.67 953.1 145.86 950.45 148.25C947.8 150.64 946.47 153.54 946.47 156.96V235.03C946.47 238.44 947.79 241.35 950.45 243.74C953.1 246.13 956.29 247.32 960.02 247.32C963.75 247.32 966.91 246.12 969.52 243.74C972.13 241.35 973.43 238.45 973.43 235.03V156.96Z" fill="#905AA1"/>
<path d="M1044.97 267.69H1021.49V124.98H1088.33V146.6H1044.97V185.52H1076.65V207.14H1044.97V267.69Z" fill="#905AA1"/>
<path d="M1132.42 146.72H1107.45V125.1H1180.75V146.72H1155.9V267.7H1132.42V146.72Z" fill="#905AA1"/>
<path d="M367.64 296.54C369.41 293.43 371.83 291.01 374.9 289.28C377.97 287.54 381.41 286.68 385.23 286.68C389.69 286.68 393.6 287.82 396.96 290.11C400.31 292.4 402.66 295.56 404 299.61H394.79C393.87 297.7 392.59 296.27 390.93 295.32C389.27 294.37 387.35 293.89 385.18 293.89C382.85 293.89 380.78 294.43 378.97 295.52C377.16 296.61 375.75 298.14 374.74 300.12C373.73 302.1 373.22 304.43 373.22 307.1C373.22 309.73 373.73 312.05 374.74 314.05C375.75 316.05 377.16 317.6 378.97 318.68C380.78 319.77 382.85 320.31 385.18 320.31C387.35 320.31 389.27 319.82 390.93 318.85C392.59 317.88 393.88 316.44 394.79 314.53H404C402.66 318.61 400.33 321.79 396.99 324.05C393.65 326.32 389.73 327.45 385.23 327.45C381.42 327.45 377.97 326.58 374.9 324.85C371.83 323.11 369.41 320.7 367.64 317.61C365.87 314.52 364.98 311.01 364.98 307.08C364.99 303.17 365.87 299.65 367.64 296.54Z" fill="#3A97D3"/>
<path d="M425.13 296.4C426.79 295.45 428.69 294.97 430.82 294.97V303.38H428.7C426.18 303.38 424.29 303.97 423.01 305.15C421.73 306.33 421.09 308.39 421.09 311.33V327.12H413.08V295.43H421.09V300.35C422.13 298.67 423.47 297.35 425.13 296.4Z" fill="#3A97D3"/>
<path d="M438.29 302.64C439.57 300.16 441.3 298.25 443.5 296.92C445.69 295.59 448.14 294.92 450.85 294.92C453.21 294.92 455.28 295.4 457.06 296.35C458.83 297.3 460.25 298.51 461.32 299.95V295.43H469.39V327.12H461.32V322.49C460.29 323.98 458.87 325.21 457.06 326.18C455.25 327.15 453.16 327.64 450.8 327.64C448.13 327.64 445.7 326.95 443.51 325.58C441.32 324.21 439.58 322.27 438.3 319.77C437.02 317.27 436.38 314.4 436.38 311.16C436.37 307.96 437.01 305.12 438.29 302.64ZM460.17 306.27C459.41 304.88 458.38 303.81 457.08 303.07C455.78 302.33 454.39 301.95 452.9 301.95C451.41 301.95 450.04 302.31 448.78 303.04C447.52 303.76 446.5 304.82 445.72 306.21C444.94 307.6 444.55 309.25 444.55 311.16C444.55 313.07 444.94 314.74 445.72 316.17C446.5 317.6 447.53 318.7 448.81 319.46C450.09 320.22 451.45 320.6 452.9 320.6C454.39 320.6 455.78 320.23 457.08 319.48C458.38 318.74 459.41 317.67 460.17 316.28C460.93 314.89 461.31 313.22 461.31 311.27C461.31 309.33 460.93 307.66 460.17 306.27Z" fill="#3A97D3"/>
<path d="M493.98 302.01H488.43V327.12H480.31V302.01H476.71V295.43H480.31V293.83C480.31 289.94 481.42 287.08 483.63 285.25C485.84 283.42 489.18 282.56 493.64 282.68V289.43C491.7 289.39 490.34 289.72 489.58 290.4C488.82 291.09 488.44 292.33 488.44 294.12V295.43H493.99V302.01H493.98Z" fill="#3A97D3"/>
<path d="M510.74 302.01V317.34C510.74 318.41 511 319.18 511.51 319.66C512.02 320.14 512.89 320.37 514.11 320.37H517.83V327.12H512.8C506.05 327.12 502.68 323.84 502.68 317.28V302.01H498.9V295.43H502.68V287.59H510.75V295.43H517.84V302.01H510.74Z" fill="#3A97D3"/>
<path d="M526.38 290.31C525.44 289.41 524.98 288.3 524.98 286.96C524.98 285.63 525.45 284.51 526.38 283.61C527.31 282.71 528.49 282.27 529.9 282.27C531.31 282.27 532.48 282.72 533.42 283.61C534.35 284.51 534.82 285.62 534.82 286.96C534.82 288.29 534.35 289.41 533.42 290.31C532.49 291.21 531.31 291.65 529.9 291.65C528.49 291.65 527.31 291.2 526.38 290.31ZM533.85 295.43V327.12H525.84V295.43H533.85Z" fill="#3A97D3"/>
<path d="M570.68 298.55C573.01 300.93 574.17 304.26 574.17 308.53V327.12H566.16V309.62C566.16 307.1 565.53 305.17 564.27 303.81C563.01 302.46 561.3 301.78 559.12 301.78C556.91 301.78 555.16 302.46 553.89 303.81C552.61 305.16 551.97 307.1 551.97 309.62V327.12H543.96V295.43H551.97V299.38C553.04 298.01 554.4 296.93 556.06 296.15C557.72 295.37 559.54 294.98 561.52 294.98C565.31 294.97 568.36 296.16 570.68 298.55Z" fill="#3A97D3"/>
<path d="M602.66 296.31C604.45 297.25 605.86 298.46 606.89 299.94V295.42H614.96V327.34C614.96 330.28 614.37 332.9 613.19 335.21C612.01 337.52 610.23 339.35 607.87 340.7C605.5 342.05 602.64 342.73 599.29 342.73C594.79 342.73 591.1 341.68 588.22 339.58C585.34 337.48 583.71 334.62 583.33 331H591.28C591.7 332.45 592.6 333.6 594 334.46C595.39 335.32 597.08 335.75 599.06 335.75C601.39 335.75 603.27 335.05 604.72 333.66C606.17 332.27 606.89 330.16 606.89 327.34V322.42C605.86 323.91 604.44 325.15 602.63 326.14C600.82 327.13 598.75 327.63 596.42 327.63C593.75 327.63 591.31 326.94 589.1 325.57C586.89 324.2 585.14 322.26 583.87 319.76C582.59 317.26 581.95 314.39 581.95 311.15C581.95 307.95 582.59 305.11 583.87 302.63C585.15 300.15 586.88 298.24 589.08 296.91C591.27 295.58 593.72 294.91 596.43 294.91C598.79 294.91 600.87 295.38 602.66 296.31ZM605.75 306.27C604.99 304.88 603.96 303.81 602.66 303.07C601.36 302.33 599.97 301.95 598.48 301.95C596.99 301.95 595.62 302.31 594.36 303.04C593.1 303.76 592.08 304.82 591.3 306.21C590.52 307.6 590.13 309.25 590.13 311.16C590.13 313.07 590.52 314.74 591.3 316.17C592.08 317.6 593.11 318.7 594.39 319.46C595.67 320.22 597.03 320.6 598.48 320.6C599.97 320.6 601.36 320.23 602.66 319.48C603.96 318.74 604.99 317.67 605.75 316.28C606.51 314.89 606.89 313.22 606.89 311.27C606.89 309.33 606.51 307.66 605.75 306.27Z" fill="#3A97D3"/>
<path d="M665.9 289.65C669.08 291.29 671.54 293.63 673.28 296.66C675.02 299.69 675.88 303.21 675.88 307.21C675.88 311.21 675.01 314.71 673.28 317.71C671.54 320.7 669.08 323.02 665.9 324.66C662.72 326.3 659.03 327.12 654.83 327.12H640.87V287.19H654.83C659.02 287.19 662.71 288.01 665.9 289.65ZM664.27 316.88C666.56 314.59 667.7 311.37 667.7 307.21C667.7 303.05 666.56 299.8 664.27 297.46C661.98 295.11 658.74 293.94 654.55 293.94H648.89V320.31H654.55C658.74 320.31 661.98 319.17 664.27 316.88Z" fill="#3A97D3"/>
<path d="M684.66 290.31C683.72 289.41 683.26 288.3 683.26 286.96C683.26 285.63 683.73 284.51 684.66 283.61C685.59 282.71 686.77 282.27 688.18 282.27C689.59 282.27 690.76 282.72 691.7 283.61C692.63 284.51 693.1 285.62 693.1 286.96C693.1 288.29 692.63 289.41 691.7 290.31C690.77 291.21 689.59 291.65 688.18 291.65C686.77 291.65 685.59 291.2 684.66 290.31ZM692.12 295.43V327.12H684.11V295.43H692.12Z" fill="#3A97D3"/>
<path d="M720.9 296.31C722.69 297.25 724.1 298.46 725.13 299.94V295.42H733.2V327.34C733.2 330.28 732.61 332.9 731.43 335.21C730.25 337.52 728.47 339.35 726.11 340.7C723.74 342.05 720.88 342.73 717.53 342.73C713.03 342.73 709.34 341.68 706.46 339.58C703.58 337.48 701.95 334.62 701.57 331H709.52C709.94 332.45 710.84 333.6 712.24 334.46C713.63 335.32 715.32 335.75 717.3 335.75C719.63 335.75 721.51 335.05 722.96 333.66C724.41 332.27 725.13 330.16 725.13 327.34V322.42C724.1 323.91 722.68 325.15 720.87 326.14C719.06 327.13 716.99 327.63 714.66 327.63C711.99 327.63 709.55 326.94 707.34 325.57C705.13 324.2 703.38 322.26 702.11 319.76C700.83 317.26 700.19 314.39 700.19 311.15C700.19 307.95 700.83 305.11 702.11 302.63C703.39 300.15 705.12 298.24 707.32 296.91C709.51 295.58 711.96 294.91 714.67 294.91C717.03 294.91 719.1 295.38 720.9 296.31ZM723.99 306.27C723.23 304.88 722.2 303.81 720.9 303.07C719.6 302.33 718.21 301.95 716.72 301.95C715.23 301.95 713.86 302.31 712.6 303.04C711.34 303.76 710.32 304.82 709.54 306.21C708.76 307.6 708.37 309.25 708.37 311.16C708.37 313.07 708.76 314.74 709.54 316.17C710.32 317.6 711.35 318.7 712.63 319.46C713.91 320.22 715.27 320.6 716.72 320.6C718.21 320.6 719.6 320.23 720.9 319.48C722.2 318.74 723.23 317.67 723.99 316.28C724.75 314.89 725.13 313.22 725.13 311.27C725.13 309.33 724.75 307.66 723.99 306.27Z" fill="#3A97D3"/>
<path d="M743.81 290.31C742.87 289.41 742.41 288.3 742.41 286.96C742.41 285.63 742.88 284.51 743.81 283.61C744.74 282.71 745.92 282.27 747.33 282.27C748.74 282.27 749.91 282.72 750.85 283.61C751.78 284.51 752.25 285.62 752.25 286.96C752.25 288.29 751.78 289.41 750.85 290.31C749.92 291.21 748.74 291.65 747.33 291.65C745.91 291.65 744.74 291.2 743.81 290.31ZM751.27 295.43V327.12H743.26V295.43H751.27Z" fill="#3A97D3"/>
<path d="M770.72 302.01V317.34C770.72 318.41 770.98 319.18 771.49 319.66C772 320.14 772.87 320.37 774.09 320.37H777.81V327.12H772.78C766.03 327.12 762.66 323.84 762.66 317.28V302.01H758.88V295.43H762.66V287.59H770.73V295.43H777.82V302.01H770.72Z" fill="#3A97D3"/>
<path d="M785.68 302.64C786.96 300.16 788.69 298.25 790.89 296.92C793.08 295.59 795.53 294.92 798.24 294.92C800.6 294.92 802.67 295.4 804.45 296.35C806.22 297.3 807.64 298.51 808.71 299.95V295.43H816.78V327.12H808.71V322.49C807.68 323.98 806.26 325.21 804.45 326.18C802.64 327.15 800.55 327.64 798.19 327.64C795.52 327.64 793.09 326.95 790.9 325.58C788.71 324.21 786.97 322.27 785.69 319.77C784.41 317.27 783.77 314.4 783.77 311.16C783.76 307.96 784.4 305.12 785.68 302.64ZM807.56 306.27C806.8 304.88 805.77 303.81 804.47 303.07C803.17 302.33 801.78 301.95 800.29 301.95C798.8 301.95 797.43 302.31 796.17 303.04C794.91 303.76 793.89 304.82 793.11 306.21C792.33 307.6 791.94 309.25 791.94 311.16C791.94 313.07 792.33 314.74 793.11 316.17C793.89 317.6 794.92 318.7 796.2 319.46C797.48 320.22 798.84 320.6 800.29 320.6C801.78 320.6 803.17 320.23 804.47 319.48C805.77 318.74 806.8 317.67 807.56 316.28C808.32 314.89 808.7 313.22 808.7 311.27C808.7 309.33 808.32 307.66 807.56 306.27Z" fill="#3A97D3"/>
<path d="M834.84 284.79V327.12H826.83V284.79H834.84Z" fill="#3A97D3"/>
<path d="M868.82 293.65V303.66H882.26V310.01H868.82V320.59H883.98V327.11H860.81V287.13H883.98V293.65H868.82Z" fill="#3A97D3"/>
<path d="M910.98 327.12L904.46 317.28L898.68 327.12H890.1L900.45 311.22L889.98 295.43H899.02L905.48 305.21L911.31 295.43H919.89L909.48 311.22L920.01 327.12H910.98Z" fill="#3A97D3"/>
<path d="M926.54 302.66C927.87 300.2 929.72 298.29 932.09 296.94C934.45 295.59 937.16 294.91 940.21 294.91C944.14 294.91 947.39 295.89 949.96 297.86C952.53 299.82 954.26 302.58 955.14 306.13H946.5C946.04 304.76 945.27 303.68 944.18 302.9C943.09 302.12 941.75 301.73 940.15 301.73C937.86 301.73 936.05 302.56 934.72 304.22C933.38 305.88 932.72 308.23 932.72 311.29C932.72 314.3 933.39 316.64 934.72 318.3C936.05 319.96 937.87 320.79 940.15 320.79C943.39 320.79 945.51 319.34 946.5 316.44H955.14C954.26 319.87 952.53 322.6 949.93 324.62C947.34 326.64 944.1 327.65 940.21 327.65C937.16 327.65 934.45 326.97 932.09 325.62C929.73 324.27 927.88 322.36 926.54 319.9C925.21 317.44 924.54 314.57 924.54 311.29C924.54 307.99 925.2 305.12 926.54 302.66Z" fill="#3A97D3"/>
<path d="M992.5 313.68H969.33C969.52 315.97 970.32 317.76 971.73 319.06C973.14 320.36 974.88 321 976.94 321C979.91 321 982.03 319.72 983.29 317.17H991.93C991.01 320.22 989.26 322.73 986.67 324.69C984.08 326.65 980.89 327.64 977.12 327.64C974.07 327.64 971.33 326.96 968.91 325.61C966.49 324.26 964.6 322.34 963.25 319.86C961.9 317.38 961.22 314.52 961.22 311.28C961.22 308 961.89 305.12 963.22 302.64C964.55 300.16 966.42 298.25 968.83 296.92C971.23 295.59 974 294.92 977.12 294.92C980.13 294.92 982.83 295.57 985.21 296.86C987.59 298.16 989.44 300 990.76 302.38C992.08 304.76 992.73 307.5 992.73 310.59C992.72 311.73 992.65 312.76 992.5 313.68ZM984.43 308.3C984.39 306.24 983.65 304.59 982.2 303.35C980.75 302.11 978.98 301.49 976.88 301.49C974.9 301.49 973.23 302.09 971.87 303.29C970.52 304.49 969.69 306.16 969.38 308.3H984.43Z" fill="#3A97D3"/>
<path d="M1008.8 284.79V327.12H1000.79V284.79H1008.8Z" fill="#3A97D3"/>
<path d="M1026.93 284.79V327.12H1018.92V284.79H1026.93Z" fill="#3A97D3"/>
<path d="M1066.29 313.68H1043.12C1043.31 315.97 1044.11 317.76 1045.52 319.06C1046.93 320.36 1048.67 321 1050.73 321C1053.7 321 1055.82 319.72 1057.08 317.17H1065.72C1064.8 320.22 1063.05 322.73 1060.46 324.69C1057.87 326.65 1054.68 327.64 1050.91 327.64C1047.86 327.64 1045.12 326.96 1042.7 325.61C1040.28 324.26 1038.39 322.34 1037.04 319.86C1035.69 317.38 1035.01 314.52 1035.01 311.28C1035.01 308 1035.68 305.12 1037.01 302.64C1038.34 300.16 1040.21 298.25 1042.62 296.92C1045.02 295.59 1047.79 294.92 1050.91 294.92C1053.92 294.92 1056.62 295.57 1059 296.86C1061.38 298.16 1063.23 300 1064.55 302.38C1065.86 304.76 1066.52 307.5 1066.52 310.59C1066.52 311.73 1066.44 312.76 1066.29 313.68ZM1058.22 308.3C1058.18 306.24 1057.44 304.59 1055.99 303.35C1054.54 302.11 1052.77 301.49 1050.67 301.49C1048.69 301.49 1047.02 302.09 1045.66 303.29C1044.31 304.49 1043.48 306.16 1043.17 308.3H1058.22Z" fill="#3A97D3"/>
<path d="M1101.29 298.55C1103.62 300.93 1104.78 304.26 1104.78 308.53V327.12H1096.77V309.62C1096.77 307.1 1096.14 305.17 1094.88 303.81C1093.62 302.46 1091.91 301.78 1089.73 301.78C1087.52 301.78 1085.77 302.46 1084.5 303.81C1083.22 305.16 1082.58 307.1 1082.58 309.62V327.12H1074.57V295.43H1082.58V299.38C1083.65 298.01 1085.01 296.93 1086.67 296.15C1088.33 295.37 1090.15 294.98 1092.13 294.98C1095.92 294.97 1098.97 296.16 1101.29 298.55Z" fill="#3A97D3"/>
<path d="M1114.56 302.66C1115.89 300.2 1117.74 298.29 1120.11 296.94C1122.47 295.59 1125.18 294.91 1128.23 294.91C1132.16 294.91 1135.41 295.89 1137.98 297.86C1140.55 299.82 1142.28 302.58 1143.16 306.13H1134.52C1134.06 304.76 1133.29 303.68 1132.2 302.9C1131.11 302.12 1129.77 301.73 1128.17 301.73C1125.88 301.73 1124.07 302.56 1122.74 304.22C1121.41 305.88 1120.74 308.23 1120.74 311.29C1120.74 314.3 1121.41 316.64 1122.74 318.3C1124.07 319.96 1125.89 320.79 1128.17 320.79C1131.41 320.79 1133.53 319.34 1134.52 316.44H1143.16C1142.28 319.87 1140.55 322.6 1137.95 324.62C1135.36 326.64 1132.12 327.65 1128.23 327.65C1125.18 327.65 1122.47 326.97 1120.11 325.62C1117.74 324.27 1115.9 322.36 1114.56 319.9C1113.23 317.44 1112.56 314.57 1112.56 311.29C1112.56 307.99 1113.23 305.12 1114.56 302.66Z" fill="#3A97D3"/>
<path d="M1180.52 313.68H1157.35C1157.54 315.97 1158.34 317.76 1159.75 319.06C1161.16 320.36 1162.9 321 1164.96 321C1167.93 321 1170.05 319.72 1171.31 317.17H1179.95C1179.03 320.22 1177.28 322.73 1174.69 324.69C1172.1 326.65 1168.91 327.64 1165.14 327.64C1162.09 327.64 1159.35 326.96 1156.93 325.61C1154.51 324.26 1152.62 322.34 1151.27 319.86C1149.92 317.38 1149.24 314.52 1149.24 311.28C1149.24 308 1149.91 305.12 1151.24 302.64C1152.57 300.16 1154.44 298.25 1156.85 296.92C1159.25 295.59 1162.02 294.92 1165.14 294.92C1168.15 294.92 1170.85 295.57 1173.23 296.86C1175.61 298.16 1177.46 300 1178.78 302.38C1180.1 304.76 1180.75 307.5 1180.75 310.59C1180.75 311.73 1180.67 312.76 1180.52 313.68ZM1172.45 308.3C1172.41 306.24 1171.67 304.59 1170.22 303.35C1168.77 302.11 1167 301.49 1164.9 301.49C1162.92 301.49 1161.25 302.09 1159.89 303.29C1158.54 304.49 1157.71 306.16 1157.4 308.3H1172.45Z" fill="#3A97D3"/>
<path d="M19 21.1302C19.88 21.1302 20.46 21.1302 21.04 21.1302C30.23 21.1302 39.42 21.1702 48.61 21.0902C50.09 21.0802 50.76 21.5602 51.36 22.8802C60.76 43.4602 70.22 64.0102 79.66 84.5702C93.82 115.41 107.96 146.26 122.12 177.11C127.98 189.87 133.84 202.63 139.71 215.39C139.89 215.78 140.12 216.15 140.41 216.68C140.68 216.29 140.9 216.04 141.03 215.75C149.03 198.51 157.03 181.27 164.98 164.01C165.26 163.4 165.26 162.45 164.98 161.84C151.8 132.84 138.58 103.86 125.37 74.8702C117.42 57.4402 109.48 40.0202 101.53 22.5902C101.33 22.1502 101.17 21.7002 100.93 21.1202C101.48 21.0802 101.86 21.0402 102.23 21.0402C111.72 21.0402 121.21 21.0602 130.69 21.0002C131.99 20.9902 132.55 21.4102 133.09 22.5802C147.51 53.9602 161.98 85.3202 176.43 116.68C178.13 120.36 179.81 124.06 181.66 128.12C182.94 125.38 184.07 122.99 185.18 120.6C195.89 97.5702 206.6 74.5402 217.3 51.5002C221.8 41.8302 226.3 32.1602 230.75 22.4702C231.21 21.4602 231.78 21.1202 232.88 21.1202C269.44 21.1502 306 21.1402 342.56 21.1402C343 21.1402 343.43 21.1402 344.3 21.1402C289.78 138.17 235.39 254.93 180.89 371.92C180.47 371.41 180.31 371.28 180.24 371.11C179.3 368.56 177.81 366.29 176.74 363.8C175.61 361.17 174.27 358.64 173.04 356.06C171.82 353.51 170.64 350.95 169.43 348.39C168.23 345.83 167.09 343.24 165.78 340.74C165.24 339.69 165.66 338.94 166.05 338.1C169.05 331.62 172.06 325.14 175.07 318.67C179.14 309.89 183.22 301.12 187.29 292.34C195.46 274.74 203.62 257.14 211.79 239.55C223.79 213.72 235.79 187.89 247.8 162.07C262.47 130.54 277.14 99.0002 291.81 67.4702C294.49 61.7102 297.17 55.9602 299.85 50.2002C299.99 49.9002 300.09 49.5702 300.28 49.0702C299.61 49.0402 299.1 48.9902 298.58 48.9902C282.83 48.9902 267.09 49.0002 251.34 48.9602C250.34 48.9602 249.87 49.2802 249.45 50.1802C239.76 71.0602 230.03 91.9302 220.3 112.79C211.75 131.14 203.19 149.48 194.64 167.83C183.01 192.79 171.38 217.75 159.74 242.7C153.36 256.37 146.97 270.03 140.57 283.69C140.35 284.17 140.06 284.61 139.63 285.36C99.4 197.19 59.28 109.34 19 21.1302Z" fill="url(#paint0_linear_1_43)"/>
<defs>
<linearGradient id="paint0_linear_1_43" x1="19.0001" y1="196.465" x2="344.3" y2="196.465" gradientUnits="userSpaceOnUse">
<stop stop-color="#3A97D3"/>
<stop offset="1" stop-color="#905AA1"/>
</linearGradient>
</defs>
</svg>
