<svg xmlns="http://www.w3.org/2000/svg" xmlns:xlink="http://www.w3.org/1999/xlink" version="1.1" id="Layer_1" x="0px" y="0px" style="enable-background:new 0 0 1500 1500;" xml:space="preserve" viewBox="341.25 440.26 817.5 619.47">
<style type="text/css">
	.st0{fill:url(#SVGID_1_);}
	.st1{enable-background:new    ;}
	.st2{fill:#3A97D3;}
	.st3{fill:#905AA1;}
</style>
<g>
	
		<linearGradient id="SVGID_1_" gradientUnits="userSpaceOnUse" x1="597.0001" y1="886.2756" x2="922.3002" y2="886.2756" gradientTransform="matrix(1 0 0 -1 0 1502)">
		<stop offset="0" style="stop-color:#3A97D3"/>
		<stop offset="1" style="stop-color:#905AA1"/>
	</linearGradient>
	<path class="st0" d="M597,440.39c0.88,0,1.46,0,2.04,0c9.19,0,18.38,0.04,27.57-0.04c1.48-0.01,2.15,0.47,2.75,1.79   c9.4,20.58,18.86,41.13,28.3,61.69c14.16,30.84,28.3,61.69,42.46,92.54c5.86,12.76,11.72,25.52,17.59,38.28   c0.18,0.39,0.41,0.76,0.7,1.29c0.27-0.39,0.49-0.64,0.62-0.93c8-17.24,16-34.48,23.95-51.74c0.28-0.61,0.28-1.56,0-2.17   c-13.18-29-26.4-57.98-39.61-86.97c-7.95-17.43-15.89-34.85-23.84-52.28c-0.2-0.44-0.36-0.89-0.6-1.47   c0.55-0.04,0.93-0.08,1.3-0.08c9.49,0,18.98,0.02,28.46-0.04c1.3-0.01,1.86,0.41,2.4,1.58c14.42,31.38,28.89,62.74,43.34,94.1   c1.7,3.68,3.38,7.38,5.23,11.44c1.28-2.74,2.41-5.13,3.52-7.52c10.71-23.03,21.42-46.06,32.12-69.1c4.5-9.67,9-19.34,13.45-29.03   c0.46-1.01,1.03-1.35,2.13-1.35c36.56,0.03,73.12,0.02,109.68,0.02c0.44,0,0.87,0,1.74,0   c-54.52,117.03-108.91,233.79-163.41,350.78c-0.42-0.51-0.58-0.64-0.65-0.81c-0.94-2.55-2.43-4.82-3.5-7.31   c-1.13-2.63-2.47-5.16-3.7-7.74c-1.22-2.55-2.4-5.11-3.61-7.67c-1.2-2.56-2.34-5.15-3.65-7.65c-0.54-1.05-0.12-1.8,0.27-2.64   c3-6.48,6.01-12.96,9.02-19.43c4.07-8.78,8.15-17.55,12.22-26.33c8.17-17.6,16.33-35.2,24.5-52.79c12-25.83,24-51.66,36.01-77.48   c14.67-31.53,29.34-63.07,44.01-94.6c2.68-5.76,5.36-11.51,8.04-17.27c0.14-0.3,0.24-0.63,0.43-1.13c-0.67-0.03-1.18-0.08-1.7-0.08   c-15.75,0-31.49,0.01-47.24-0.03c-1,0-1.47,0.32-1.89,1.22c-9.69,20.88-19.42,41.75-29.15,62.61   c-8.55,18.35-17.11,36.69-25.66,55.04c-11.63,24.96-23.26,49.92-34.9,74.87c-6.38,13.67-12.77,27.33-19.17,40.99   c-0.22,0.48-0.51,0.92-0.94,1.67C677.4,616.45,637.28,528.6,597,440.39z"/>
	<g class="st1">
		<path class="st2" d="M369.08,984.69l-27.83-142.6h24.61l19.54,111.15l19.68-111.15h24.62l-28.32,142.6H369.08z"/>
		<path class="st2" d="M452.3,984.69V841.98h66.84v21.62h-43.36v38.92h31.68v21.62h-31.68v38.92h43.36v21.62H452.3z"/>
		<path class="st2" d="M602.24,984.69h-63.98v-142.6h23.48v121.2h40.5V984.69z"/>
		<path class="st2" d="M689.94,842.09v21.62L646.7,963.3h43.23v21.4h-68.57v-21.53l43.36-99.56l-43.36,0.11v-21.62H689.94z"/>
		<path class="st2" d="M746.2,840.27c10.35,0,19.15,3.34,26.4,10.01c7.25,6.68,10.87,14.72,10.87,24.13v77.84    c0,9.49-3.64,17.55-10.93,24.18c-7.29,6.64-16.07,9.96-26.34,9.96c-10.35,0-19.13-3.34-26.34-10.01    c-7.21-6.68-10.81-14.72-10.81-24.13v-77.84c0-9.48,3.64-17.54,10.93-24.18C727.28,843.59,736.02,840.27,746.2,840.27z     M759,873.96c0-3.41-1.3-6.32-3.91-8.71c-2.61-2.39-5.78-3.58-9.5-3.58s-6.92,1.19-9.57,3.58c-2.65,2.39-3.98,5.29-3.98,8.71    v78.07c0,3.41,1.32,6.32,3.98,8.71c2.65,2.39,5.84,3.58,9.57,3.58s6.89-1.2,9.5-3.58s3.91-5.29,3.91-8.71V873.96z"/>
	</g>
	<g class="st1">
		<path class="st3" d="M879.39,949.19c0.17,9.94-2.65,18.44-8.45,25.49c-3.81,4.78-9.19,8.16-16.15,10.13    c-3.73,1.06-8.08,1.59-13.04,1.59c-9.19,0-16.81-2.09-22.86-6.26c-5.05-3.42-9.05-8.06-11.99-13.94    c-2.94-5.88-4.66-12.61-5.16-20.2l22.36-1.48c0.99,8.31,3.39,14.34,7.21,18.07c2.81,2.82,6.04,4.16,9.69,4    c5.13-0.15,9.23-2.47,12.3-6.95c1.57-2.2,2.36-5.35,2.36-9.45c0-5.92-2.94-11.81-8.82-17.66c-4.64-4.02-11.6-10.06-20.87-18.11    c-7.79-6.91-13.29-13.1-16.52-18.57c-3.48-6.15-5.22-12.83-5.22-20.05c0-12.98,4.76-22.82,14.29-29.5    c5.88-4.02,13.17-6.04,21.87-6.04c8.36,0,15.53,1.71,21.49,5.12c4.64,2.66,8.39,6.37,11.24,11.15c2.86,4.78,4.58,10.28,5.16,16.5    l-22.49,3.76c-0.66-5.84-2.48-10.39-5.47-13.66c-2.15-2.35-5.26-3.53-9.32-3.53c-4.31,0-7.58,1.75-9.81,5.24    c-1.82,2.81-2.73,6.3-2.73,10.47c0,6.53,3.06,13.16,9.19,19.92c2.32,2.58,5.8,5.62,10.44,9.1c5.47,4.17,9.07,7.09,10.81,8.76    c5.8,5.31,10.27,10.55,13.42,15.71c1.49,2.43,2.69,4.67,3.6,6.71C878.14,940.61,879.3,945.16,879.39,949.19z"/>
		<path class="st3" d="M938.63,840.27c10.35,0,19.15,3.34,26.4,10.01c7.25,6.68,10.87,14.72,10.87,24.13v77.84    c0,9.49-3.64,17.55-10.93,24.18c-7.29,6.64-16.07,9.96-26.34,9.96c-10.35,0-19.13-3.34-26.34-10.01    c-7.21-6.68-10.81-14.72-10.81-24.13v-77.84c0-9.48,3.64-17.54,10.93-24.18C919.71,843.59,928.45,840.27,938.63,840.27z     M951.43,873.96c0-3.41-1.3-6.32-3.91-8.71c-2.61-2.39-5.78-3.58-9.5-3.58s-6.92,1.19-9.57,3.58c-2.65,2.39-3.98,5.29-3.98,8.71    v78.07c0,3.41,1.32,6.32,3.98,8.71c2.65,2.39,5.84,3.58,9.57,3.58s6.89-1.2,9.5-3.58c2.61-2.39,3.91-5.29,3.91-8.71V873.96z"/>
		<path class="st3" d="M1022.97,984.69h-23.48V841.98h66.84v21.62h-43.36v38.92h31.68v21.62h-31.68V984.69z"/>
		<path class="st3" d="M1110.42,863.72h-24.97v-21.62h73.3v21.62h-24.85v120.98h-23.48V863.72z"/>
	</g>
	<g>
		<g class="st1">
			<path class="st2" d="M345.64,1013.54c1.77-3.11,4.19-5.53,7.26-7.26c3.07-1.74,6.51-2.6,10.33-2.6c4.46,0,8.37,1.14,11.73,3.43     c3.35,2.29,5.7,5.45,7.04,9.5h-9.21c-0.92-1.91-2.2-3.34-3.86-4.29c-1.66-0.95-3.58-1.43-5.75-1.43c-2.33,0-4.4,0.54-6.21,1.63     c-1.81,1.09-3.22,2.62-4.23,4.6c-1.01,1.98-1.52,4.31-1.52,6.98c0,2.63,0.51,4.95,1.52,6.95c1.01,2,2.42,3.55,4.23,4.63     c1.81,1.09,3.88,1.63,6.21,1.63c2.17,0,4.09-0.49,5.75-1.46c1.66-0.97,2.95-2.41,3.86-4.32H382c-1.34,4.08-3.67,7.26-7.01,9.52     c-3.34,2.27-7.26,3.4-11.76,3.4c-3.81,0-7.26-0.87-10.33-2.6c-3.07-1.74-5.49-4.15-7.26-7.24c-1.77-3.09-2.66-6.6-2.66-10.53     C342.99,1020.17,343.87,1016.65,345.64,1013.54z"/>
			<path class="st2" d="M403.13,1013.4c1.66-0.95,3.56-1.43,5.69-1.43v8.41h-2.12c-2.52,0-4.41,0.59-5.69,1.77     c-1.28,1.18-1.92,3.24-1.92,6.18v15.79h-8.01v-31.69h8.01v4.92C400.13,1015.67,401.47,1014.35,403.13,1013.4z"/>
			<path class="st2" d="M416.29,1019.64c1.28-2.48,3.01-4.39,5.21-5.72c2.19-1.33,4.64-2,7.35-2c2.36,0,4.43,0.48,6.21,1.43     c1.77,0.95,3.19,2.16,4.26,3.6v-4.52h8.07v31.69h-8.07v-4.63c-1.03,1.49-2.45,2.72-4.26,3.69c-1.81,0.97-3.9,1.46-6.26,1.46     c-2.67,0-5.1-0.69-7.29-2.06c-2.19-1.37-3.93-3.31-5.21-5.81c-1.28-2.5-1.92-5.37-1.92-8.61     C414.37,1024.96,415.01,1022.12,416.29,1019.64z M438.17,1023.27c-0.76-1.39-1.79-2.46-3.09-3.2c-1.3-0.74-2.69-1.12-4.18-1.12     c-1.49,0-2.86,0.36-4.12,1.09c-1.26,0.72-2.28,1.78-3.06,3.17c-0.78,1.39-1.17,3.04-1.17,4.95c0,1.91,0.39,3.58,1.17,5.01     c0.78,1.43,1.81,2.53,3.09,3.29c1.28,0.76,2.64,1.14,4.09,1.14c1.49,0,2.88-0.37,4.18-1.12c1.3-0.74,2.33-1.81,3.09-3.2     c0.76-1.39,1.14-3.06,1.14-5.01C439.31,1026.33,438.93,1024.66,438.17,1023.27z"/>
			<path class="st2" d="M471.98,1019.01h-5.55v25.11h-8.12v-25.11h-3.6v-6.58h3.6v-1.6c0-3.89,1.11-6.75,3.32-8.58     c2.21-1.83,5.55-2.69,10.01-2.57v6.75c-1.94-0.04-3.3,0.29-4.06,0.97c-0.76,0.69-1.14,1.93-1.14,3.72v1.31h5.55V1019.01z"/>
			<path class="st2" d="M488.74,1019.01v15.33c0,1.07,0.26,1.84,0.77,2.32c0.51,0.48,1.38,0.71,2.6,0.71h3.72v6.75h-5.03     c-6.75,0-10.12-3.28-10.12-9.84v-15.27h-3.78v-6.58h3.78v-7.84h8.07v7.84h7.09v6.58H488.74z"/>
			<path class="st2" d="M504.38,1007.31c-0.94-0.9-1.4-2.01-1.4-3.35c0-1.33,0.47-2.45,1.4-3.35c0.93-0.9,2.11-1.34,3.52-1.34     c1.41,0,2.58,0.45,3.52,1.34c0.93,0.9,1.4,2.01,1.4,3.35c0,1.33-0.47,2.45-1.4,3.35c-0.93,0.9-2.11,1.34-3.52,1.34     C506.49,1008.65,505.31,1008.2,504.38,1007.31z M511.85,1012.43v31.69h-8.01v-31.69H511.85z"/>
			<path class="st2" d="M548.68,1015.55c2.33,2.38,3.49,5.71,3.49,9.98v18.59h-8.01v-17.5c0-2.52-0.63-4.45-1.89-5.81     c-1.26-1.35-2.97-2.03-5.15-2.03c-2.21,0-3.96,0.68-5.23,2.03c-1.28,1.35-1.92,3.29-1.92,5.81v17.5h-8.01v-31.69h8.01v3.95     c1.07-1.37,2.43-2.45,4.09-3.23c1.66-0.78,3.48-1.17,5.46-1.17C543.31,1011.97,546.36,1013.16,548.68,1015.55z"/>
			<path class="st2" d="M580.66,1013.31c1.79,0.94,3.2,2.15,4.23,3.63v-4.52h8.07v31.92c0,2.94-0.59,5.56-1.77,7.87     c-1.18,2.31-2.96,4.14-5.32,5.49c-2.37,1.35-5.23,2.03-8.58,2.03c-4.5,0-8.19-1.05-11.07-3.15c-2.88-2.1-4.51-4.96-4.89-8.58     h7.95c0.42,1.45,1.32,2.6,2.72,3.46c1.39,0.86,3.08,1.29,5.06,1.29c2.33,0,4.21-0.7,5.66-2.09c1.45-1.39,2.17-3.5,2.17-6.32     v-4.92c-1.03,1.49-2.45,2.73-4.26,3.72c-1.81,0.99-3.88,1.49-6.21,1.49c-2.67,0-5.11-0.69-7.32-2.06     c-2.21-1.37-3.96-3.31-5.23-5.81c-1.28-2.5-1.92-5.37-1.92-8.61c0-3.2,0.64-6.04,1.92-8.52c1.28-2.48,3.01-4.39,5.21-5.72     c2.19-1.33,4.64-2,7.35-2C576.79,1011.91,578.87,1012.38,580.66,1013.31z M583.75,1023.27c-0.76-1.39-1.79-2.46-3.09-3.2     c-1.3-0.74-2.69-1.12-4.18-1.12c-1.49,0-2.86,0.36-4.12,1.09c-1.26,0.72-2.28,1.78-3.06,3.17c-0.78,1.39-1.17,3.04-1.17,4.95     c0,1.91,0.39,3.58,1.17,5.01c0.78,1.43,1.81,2.53,3.09,3.29c1.28,0.76,2.64,1.14,4.09,1.14c1.49,0,2.88-0.37,4.18-1.12     c1.3-0.74,2.33-1.81,3.09-3.2c0.76-1.39,1.14-3.06,1.14-5.01C584.89,1026.33,584.51,1024.66,583.75,1023.27z"/>
			<path class="st2" d="M643.9,1006.65c3.18,1.64,5.64,3.98,7.38,7.01c1.74,3.03,2.6,6.55,2.6,10.55c0,4-0.87,7.5-2.6,10.5     c-1.74,2.99-4.2,5.31-7.38,6.95c-3.18,1.64-6.87,2.46-11.07,2.46h-13.96v-39.93h13.96     C637.02,1004.19,640.71,1005.01,643.9,1006.65z M642.27,1033.88c2.29-2.29,3.43-5.51,3.43-9.67c0-4.16-1.14-7.41-3.43-9.75     c-2.29-2.35-5.53-3.52-9.72-3.52h-5.66v26.37h5.66C636.74,1037.31,639.98,1036.17,642.27,1033.88z"/>
			<path class="st2" d="M662.66,1007.31c-0.94-0.9-1.4-2.01-1.4-3.35c0-1.33,0.47-2.45,1.4-3.35c0.93-0.9,2.11-1.34,3.52-1.34     c1.41,0,2.58,0.45,3.52,1.34c0.93,0.9,1.4,2.01,1.4,3.35c0,1.33-0.47,2.45-1.4,3.35c-0.93,0.9-2.11,1.34-3.52,1.34     C664.77,1008.65,663.59,1008.2,662.66,1007.31z M670.12,1012.43v31.69h-8.01v-31.69H670.12z"/>
			<path class="st2" d="M698.9,1013.31c1.79,0.94,3.2,2.15,4.23,3.63v-4.52h8.07v31.92c0,2.94-0.59,5.56-1.77,7.87     c-1.18,2.31-2.96,4.14-5.32,5.49c-2.37,1.35-5.23,2.03-8.58,2.03c-4.5,0-8.19-1.05-11.07-3.15c-2.88-2.1-4.51-4.96-4.89-8.58     h7.95c0.42,1.45,1.32,2.6,2.72,3.46c1.39,0.86,3.08,1.29,5.06,1.29c2.33,0,4.21-0.7,5.66-2.09c1.45-1.39,2.17-3.5,2.17-6.32     v-4.92c-1.03,1.49-2.45,2.73-4.26,3.72c-1.81,0.99-3.88,1.49-6.21,1.49c-2.67,0-5.11-0.69-7.32-2.06     c-2.21-1.37-3.96-3.31-5.23-5.81c-1.28-2.5-1.92-5.37-1.92-8.61c0-3.2,0.64-6.04,1.92-8.52c1.28-2.48,3.01-4.39,5.21-5.72     c2.19-1.33,4.64-2,7.35-2C695.03,1011.91,697.1,1012.38,698.9,1013.31z M701.99,1023.27c-0.76-1.39-1.79-2.46-3.09-3.2     c-1.3-0.74-2.69-1.12-4.18-1.12c-1.49,0-2.86,0.36-4.12,1.09c-1.26,0.72-2.28,1.78-3.06,3.17c-0.78,1.39-1.17,3.04-1.17,4.95     c0,1.91,0.39,3.58,1.17,5.01c0.78,1.43,1.81,2.53,3.09,3.29c1.28,0.76,2.64,1.14,4.09,1.14c1.49,0,2.88-0.37,4.18-1.12     c1.3-0.74,2.33-1.81,3.09-3.2c0.76-1.39,1.14-3.06,1.14-5.01C703.13,1026.33,702.75,1024.66,701.99,1023.27z"/>
			<path class="st2" d="M721.81,1007.31c-0.94-0.9-1.4-2.01-1.4-3.35c0-1.33,0.47-2.45,1.4-3.35c0.93-0.9,2.11-1.34,3.52-1.34     c1.41,0,2.58,0.45,3.52,1.34c0.93,0.9,1.4,2.01,1.4,3.35c0,1.33-0.47,2.45-1.4,3.35c-0.93,0.9-2.11,1.34-3.52,1.34     C723.91,1008.65,722.74,1008.2,721.81,1007.31z M729.27,1012.43v31.69h-8.01v-31.69H729.27z"/>
			<path class="st2" d="M748.72,1019.01v15.33c0,1.07,0.26,1.84,0.77,2.32s1.38,0.71,2.6,0.71h3.72v6.75h-5.03     c-6.75,0-10.12-3.28-10.12-9.84v-15.27h-3.78v-6.58h3.78v-7.84h8.07v7.84h7.09v6.58H748.72z"/>
			<path class="st2" d="M763.68,1019.64c1.28-2.48,3.01-4.39,5.21-5.72c2.19-1.33,4.64-2,7.35-2c2.36,0,4.43,0.48,6.21,1.43     c1.77,0.95,3.19,2.16,4.26,3.6v-4.52h8.07v31.69h-8.07v-4.63c-1.03,1.49-2.45,2.72-4.26,3.69c-1.81,0.97-3.9,1.46-6.26,1.46     c-2.67,0-5.1-0.69-7.29-2.06c-2.19-1.37-3.93-3.31-5.21-5.81c-1.28-2.5-1.92-5.37-1.92-8.61     C761.76,1024.96,762.4,1022.12,763.68,1019.64z M785.56,1023.27c-0.76-1.39-1.79-2.46-3.09-3.2c-1.3-0.74-2.69-1.12-4.18-1.12     c-1.49,0-2.86,0.36-4.12,1.09c-1.26,0.72-2.28,1.78-3.06,3.17c-0.78,1.39-1.17,3.04-1.17,4.95c0,1.91,0.39,3.58,1.17,5.01     c0.78,1.43,1.81,2.53,3.09,3.29c1.28,0.76,2.64,1.14,4.09,1.14c1.49,0,2.88-0.37,4.18-1.12c1.3-0.74,2.33-1.81,3.09-3.2     c0.76-1.39,1.14-3.06,1.14-5.01C786.7,1026.33,786.32,1024.66,785.56,1023.27z"/>
			<path class="st2" d="M812.84,1001.79v42.33h-8.01v-42.33H812.84z"/>
			<path class="st2" d="M846.82,1010.65v10.01h13.44v6.35h-13.44v10.58h15.16v6.52h-23.17v-39.98h23.17v6.52H846.82z"/>
			<path class="st2" d="M888.98,1044.12l-6.52-9.84l-5.78,9.84h-8.58l10.35-15.9l-10.47-15.79h9.04l6.46,9.78l5.83-9.78h8.58     l-10.41,15.79l10.53,15.9H888.98z"/>
			<path class="st2" d="M904.54,1019.66c1.33-2.46,3.18-4.37,5.55-5.72c2.36-1.35,5.07-2.03,8.12-2.03c3.93,0,7.18,0.98,9.75,2.95     c2.57,1.96,4.3,4.72,5.18,8.27h-8.64c-0.46-1.37-1.23-2.45-2.32-3.23c-1.09-0.78-2.43-1.17-4.03-1.17c-2.29,0-4.1,0.83-5.43,2.49     c-1.34,1.66-2,4.01-2,7.07c0,3.01,0.67,5.35,2,7.01c1.33,1.66,3.15,2.49,5.43,2.49c3.24,0,5.36-1.45,6.35-4.35h8.64     c-0.88,3.43-2.61,6.16-5.21,8.18c-2.59,2.02-5.83,3.03-9.72,3.03c-3.05,0-5.76-0.68-8.12-2.03c-2.36-1.35-4.21-3.26-5.55-5.72     c-1.33-2.46-2-5.33-2-8.61C902.54,1024.99,903.2,1022.12,904.54,1019.66z"/>
			<path class="st2" d="M970.5,1030.68h-23.17c0.19,2.29,0.99,4.08,2.4,5.38c1.41,1.3,3.15,1.94,5.21,1.94     c2.97,0,5.09-1.28,6.35-3.83h8.64c-0.92,3.05-2.67,5.56-5.26,7.52c-2.59,1.96-5.78,2.95-9.55,2.95c-3.05,0-5.79-0.68-8.21-2.03     c-2.42-1.35-4.31-3.27-5.66-5.75c-1.35-2.48-2.03-5.34-2.03-8.58c0-3.28,0.67-6.16,2-8.64c1.33-2.48,3.2-4.39,5.61-5.72     c2.4-1.33,5.17-2,8.29-2c3.01,0,5.71,0.65,8.09,1.94c2.38,1.3,4.23,3.14,5.55,5.52c1.32,2.38,1.97,5.12,1.97,8.21     C970.72,1028.73,970.65,1029.76,970.5,1030.68z M962.43,1025.3c-0.04-2.06-0.78-3.71-2.23-4.95c-1.45-1.24-3.22-1.86-5.32-1.86     c-1.98,0-3.65,0.6-5.01,1.8c-1.35,1.2-2.18,2.87-2.49,5.01H962.43z"/>
			<path class="st2" d="M986.8,1001.79v42.33h-8.01v-42.33H986.8z"/>
			<path class="st2" d="M1004.93,1001.79v42.33h-8.01v-42.33H1004.93z"/>
			<path class="st2" d="M1044.29,1030.68h-23.17c0.19,2.29,0.99,4.08,2.4,5.38c1.41,1.3,3.15,1.94,5.21,1.94     c2.97,0,5.09-1.28,6.35-3.83h8.64c-0.92,3.05-2.67,5.56-5.26,7.52c-2.59,1.96-5.78,2.95-9.55,2.95c-3.05,0-5.79-0.68-8.21-2.03     c-2.42-1.35-4.31-3.27-5.66-5.75c-1.35-2.48-2.03-5.34-2.03-8.58c0-3.28,0.67-6.16,2-8.64c1.33-2.48,3.2-4.39,5.61-5.72     c2.4-1.33,5.17-2,8.29-2c3.01,0,5.71,0.65,8.09,1.94c2.38,1.3,4.23,3.14,5.55,5.52c1.31,2.38,1.97,5.12,1.97,8.21     C1044.52,1028.73,1044.44,1029.76,1044.29,1030.68z M1036.22,1025.3c-0.04-2.06-0.78-3.71-2.23-4.95     c-1.45-1.24-3.22-1.86-5.32-1.86c-1.98,0-3.65,0.6-5.01,1.8c-1.35,1.2-2.18,2.87-2.49,5.01H1036.22z"/>
			<path class="st2" d="M1079.29,1015.55c2.33,2.38,3.49,5.71,3.49,9.98v18.59h-8.01v-17.5c0-2.52-0.63-4.45-1.89-5.81     c-1.26-1.35-2.97-2.03-5.15-2.03c-2.21,0-3.96,0.68-5.23,2.03c-1.28,1.35-1.92,3.29-1.92,5.81v17.5h-8.01v-31.69h8.01v3.95     c1.07-1.37,2.43-2.45,4.09-3.23c1.66-0.78,3.48-1.17,5.46-1.17C1073.92,1011.97,1076.97,1013.16,1079.29,1015.55z"/>
			<path class="st2" d="M1092.56,1019.66c1.33-2.46,3.18-4.37,5.55-5.72c2.36-1.35,5.07-2.03,8.12-2.03c3.93,0,7.18,0.98,9.75,2.95     c2.57,1.96,4.3,4.72,5.18,8.27h-8.64c-0.46-1.37-1.23-2.45-2.32-3.23c-1.09-0.78-2.43-1.17-4.03-1.17c-2.29,0-4.1,0.83-5.43,2.49     c-1.33,1.66-2,4.01-2,7.07c0,3.01,0.67,5.35,2,7.01c1.33,1.66,3.15,2.49,5.43,2.49c3.24,0,5.36-1.45,6.35-4.35h8.64     c-0.88,3.43-2.61,6.16-5.21,8.18c-2.59,2.02-5.83,3.03-9.72,3.03c-3.05,0-5.76-0.68-8.12-2.03c-2.37-1.35-4.21-3.26-5.55-5.72     c-1.33-2.46-2-5.33-2-8.61C1090.56,1024.99,1091.23,1022.12,1092.56,1019.66z"/>
			<path class="st2" d="M1158.52,1030.68h-23.17c0.19,2.29,0.99,4.08,2.4,5.38c1.41,1.3,3.15,1.94,5.21,1.94     c2.97,0,5.09-1.28,6.35-3.83h8.64c-0.92,3.05-2.67,5.56-5.26,7.52s-5.78,2.95-9.55,2.95c-3.05,0-5.79-0.68-8.21-2.03     c-2.42-1.35-4.31-3.27-5.66-5.75c-1.35-2.48-2.03-5.34-2.03-8.58c0-3.28,0.67-6.16,2-8.64c1.33-2.48,3.2-4.39,5.61-5.72     c2.4-1.33,5.17-2,8.29-2c3.01,0,5.71,0.65,8.09,1.94c2.38,1.3,4.23,3.14,5.55,5.52c1.32,2.38,1.97,5.12,1.97,8.21     C1158.75,1028.73,1158.67,1029.76,1158.52,1030.68z M1150.45,1025.3c-0.04-2.06-0.78-3.71-2.23-4.95     c-1.45-1.24-3.22-1.86-5.32-1.86c-1.98,0-3.65,0.6-5.01,1.8c-1.35,1.2-2.18,2.87-2.49,5.01H1150.45z"/>
		</g>
	</g>
</g>
</svg>